<svg xmlns="http://www.w3.org/2000/svg" viewBox="0 0 2048 699" width="820" height="280">
  <!-- Base track outline -->
  <path d="M327 100h58l52 2 55 4 34 4 28 5 20 5 13 5 9 6 7 8 2 6v21l-5 25 9 6 14 8 10 9 8 12 2 4 4 2 10 9 3 6 1 4v15l-4 26-13 72-4 25-1 14 32-8 38-7 118-18 92-15 20-4 2-24 3-10 5-8 10-6 12-3 32-3 31-2 24-1h49l126 6 1-9 11-71 8-53 6-30 4-10 7-7 12-6 12-3h25l89 7 113 9 163 14 63 7 84 11 53 7 55 6 23 4 19 5 12 5 10 6 9 9 8 16 2 9v27l-4 62-4 74-4 44-4 26-4 17-5 12-6 10-5 6-7 5-8 3h-14l-69-6-70-7-317-33-143-13-173-17-118-11-68-7-14-1h-44l-33 3-46 6-88 13-91 14-25 5-13 5-9 6-10 10-11 14-16 21-12 16-9 10-8 7-14 8-15 6-23 7-44 11-90 21-23 7-23 11-21 13-23 15-20 13-25 15-16 7-7 2h-20l-16-5-10-8-7-7-11-14-13-18-20-30-32-50-26-40-29-44-10-15-5-11-2-9v-10l4-17 10-24 13-28 15-32 13-28 14-30 10-18 9-13 8-10 7-7 7-8 12-11 27-27 8-7 16-16 8-7 14-12 18-12 13-6 19-5 18-2z"
    stroke="#333"
    stroke-width="18"
    stroke-linecap="round"
    stroke-linejoin="round"
    fill="none"/>
</svg>
