<svg xmlns="http://www.w3.org/2000/svg" viewBox="0 0 2000 1278" width="1000" height="639">
  <path d="M1525 0
    h15l15 3 16 8 9 7 9 9 11 14 7 5 3 1h9l23-6 54-18 20-6 12-2h17l13 3 16 8 12 9 12 11 16 16 
    7 8 10 11 9 11 9 10 9 11 12 14 9 11 12 14 9 11 11 13 9 11 11 13 8 10 13 16 10 13 14 19 
    10 15 9 17 4 12 1 6v10l-4 16-9 19-9 12-9 8-14 7-9 2h-14l-17-4-19-9-12-8-10-8-10-9-7-6-7-8
    -11-12-10-13-14-19-10-13-11-13-8-6-3-1h-14l-21 7-28 12-38 17-33 14-36 14-43 15-47 15-78 23
    -63 18-33 11-21 10-9 7-8 9-5 11-3 12-1 11v22l2 35 3 26 4 17 5 13 8 12 6 7 13 10 17 10 
    25 11 34 12 37 12 145 42 56 17 26 9 21 9 14 9 9 8 7 10 8 14 5 12 4 15 1 7v19l-4 20-6 16
    -13 24v16l3 21 4 7 9 8 20 12 28 15 42 21 23 11 45 22 17 10 16 12 10 10 7 11 4 10 2 12-1 16
    -5 19-8 19-8 17-13 23-12 20-18 27-10 13-13 15-13 12-14 9-15 7-16 4-8 1h-28l-27-4-28-6-28-8
    -30-11-28-13-26-14-19-12-16-11-19-14-17-14-14-12-17-16-25-25-7-8-11-12-9-11-11-13-13-17
    -10-13-13-18-17-25-28-42-13-19-13-18-15-20-13-15-11-12-10-10-11-9-15-11-18-11-16-8-17-8
    -37-14-45-15-56-17-21-5-6-1h-19l-18 4-22 8-35 16-33 16-48 23-34 16-35 16-35 15-29 11-23 7
    -51 10-106 19-30 5h-15l-10-5-7-7-8-14-4-12-1-11-19 14-21 16-14 10-20 15-14 10-36 26-17 12
    -18 13-34 24-18 13-17 12-18 13-20 14-18 13-20 14-18 13-17 12-20 14-23 16-21 14-13 8-16 9
    -11 4h-14l-9-4-8-7-6-8-4-11v-11l4-19 12-36 18-48 12-30 15-35 16-33 14-26 13-21 11-16 14-19
    11-14 11-13 9-11 13-14 7-8 12-13 7-7 7-8 24-24 7-8 57-57 7-8 13-13 7-8 14-15 9-11 12-15
    10-15 15-30 10-16 9-11 7-8 11-9 11-8 25-13 24-9 34-10 19-9 23-14 23-16 18-13 19-14 16-12
    26-20 18-14 42-33 15-12 19-14 22-14 24-13 22-11 36-16 44-19 41-17 49-20 99-40 107-43 207-83
    41-16 42-16 30-10z"
    stroke="black"
    stroke-width="12"
    stroke-linecap="round"
    stroke-linejoin="round"
    fill="none"/>
</svg>
