<svg xmlns="http://www.w3.org/2000/svg" viewBox="0 0 2048 1536" width="1024" height="768">
  <path d="M1031 239
    l18 1 17 4 16 6 12 7 9 7 11 11 12 17 20 30 12 16 11 13 6 6v2l4 2 7 7 13 9 25 12 33 15 
    68 31 40 18 37 17 36 16 32 15 33 15 27 12 15 7 32 15 26 12 18 8 15 7 29 14 28 13 35 17 
    23 11 30 15 23 13 26 14 25 14 19 13 11 9 8 7 9 11 8 11 8 17 4 17 3 26v16l-3 19-6 16-7 11 
    -9 11-14 14-15 11-18 10-18 8-18 10-12 8-19 14-13 11-7 6h-2v2l-8 7-78 78-7 8-4 2v2h-2l-2 4
    -15 14-36 36-1 5 7 8 10 10 7 10 6 12 3 12v13l-3 12-6 12-9 12-13 13-8 7-14 12-16 12-16 10
    -17 9-20 7-14 3-8 1h-25l-17-3-13-5-17-9-25-17-23-16-12-8-163-110-39-26-17-12-27-18-31-21
    -28-19-17-12-13-11-9-9-10-14-7-14-5-16-2-12v-38l5-75v-39l-3-18-6-16-7-13-10-14-11-13-9-10
    -11-12-9-10-22-24-9-10v-2h-2l-7-8-11-12v-2h-2l-7-8-10-11-9-11-9-13-5-11-2-9v-14l4-13 7-11
    7-7 13-9 19-9 36-12 19-7 3-2-1-4-36-12-21-4-18-2-18-1h-24l-25 2-11 3-9 7-10 11-9 12-10 13
    -14 18-20 26-14 18-10 13-14 18-10 13-14 18-11 14-10 13-14 18-10 13-42 54-11 14-10 13-14 18
    -10 13-42 54-10 13-14 18-20 26-16 21-11 16-6 12-4 13-1 7v15l2 12 5 5 15 2 45 1 20 2 18 4 
    16 7 12 9 7 7 9 14 6 13 4 18v22l-4 17-8 16-10 12-11 8-14 7-15 4-7 1h-21l-17-3-18-6-26-12
    -39-17-64-28-18-10-15-10-12-9-11-9-13-12-8-8-9-11-13-17-9-15-8-16-6-15-6-21-4-25-20-155
    -14-100-10-63-10-54-3-26v-18l3-21 6-18 8-15 9-12 10-11 14-11 14-9 19-10 26-10 46-14 60-17
    50-13 37-8 25-4 172-17 27-3 19-5 20-8 16-9 14-12 16-9 12-5 11-3 7-1h19l26 6 36 12 18 7
    21 5 15 1 16-2 10-4 15-13 14-12 15-11 13-8 17-8 14-4z"
    stroke="black"
    stroke-width="12"
    stroke-linecap="round"
    stroke-linejoin="round"
    fill="none"/>
</svg>
