<svg xmlns="http://www.w3.org/2000/svg" viewBox="0 0 2048 1536" width="600" height="600">
  <path d="M913 487h73l30 1 37 3 48 7 41 8 42 10 49 14 35 11 41 14 45 16 11 7 5 5 6 8 4 10 2 13 1 17 3 6 8 6 17 8 30 11 43 15 48 15 46 13 40 10 36 7 22 3 11 1 31 1 25-1 28-3 36-6 31-6 18-1 16 2 15 5 10 6 11 9 8 11 5 10 3 10 1 7v12l-3 15-6 14-8 11-8 9-14 10-16 7-13 3-9 1-34 1-17 2-16 4-33 14-21 7-41 10-32 8-74 21-95 27-35 7-67 9-317 39-172 21h-14l-16-4-10-6-10-9-9-13-7-12-2-2-6-1-73 10-148 20-102 13-39 4-15 1h-51l-31-3-32-5-43-9-20-4-8 2-6 7-8 11-9 10-14 10-12 5-9 2h-19l-15-4-10-5-13-10-8-10-7-14-3-11-1-7v-14l3-17 7-19 13-31 10-24 8-15 10-14 10-11 7-8 13-13 8-7 16-15 8-7 12-11 8-7h2v-2l8-7 13-12 20-18 14-9 11-5 10-2h16l16 4 15 6 2 1h10l9-5 41-28 23-16 13-10 10-10 11-14 9-10 13-10 16-9 24-10 20-6 19-3h14l39 3 71 8h13l4-4 1-7-1-13v-26l3-16 4-10 8-11 9-8 15-10 17-8 17-5 24-4 11-1z" 
    stroke="black"
    stroke-width="12"
    stroke-linecap="round"
    stroke-linejoin="round"
    fill="none"/>
</svg>
