<?xml version="1.0" encoding="UTF-8"?>
<svg xmlns="http://www.w3.org/2000/svg" viewBox="0 0 1280 897" width="1280" height="897">
  <path d="M1118 102 
           L1134 102 L1144 106 L1153 114 L1165 137 L1173 152 L1179 165 L1180 170 
           L1180 178 L1176 189 L1171 195 L1152 205 L1126 217 L1094 232 L1082 238 
           L1072 247 L1054 265 L1047 273 L1033 287 L1026 295 L1006 315 L999 323 
           L980 342 L973 350 L961 360 L945 371 L926 384 L913 392 L881 407 L813 438 
           L804 438 L798 435 L792 428 L789 422 L766 422 L653 426 L605 428 L543 430 
           L527 430 L515 426 L501 420 L497 424 L484 446 L475 460 L470 469 L471 479 
           L486 537 L497 582 L498 588 L498 615 L495 631 L487 653 L474 683 L468 693 
           L461 700 L451 706 L441 709 L425 709 L338 696 L303 696 L276 700 L112 727 
           L98 727 L88 723 L80 716 L75 707 L74 703 L74 691 L78 681 L85 673 L93 665 
           L101 658 L117 643 L137 625 L176 589 L188 578 L189 571 L179 531 L179 524 
           L188 497 L201 461 L219 411 L230 381 L244 342 L261 295 L269 279 L278 269 
           L287 262 L316 247 L336 236 L340 231 L344 216 L347 204 L353 195 L361 189 
           L395 178 L420 172 L457 166 L493 161 L543 156 L559 155 L593 155 L621 158 
           L674 166 L750 180 L799 179 L872 177 L911 176 L930 175 L950 171 L974 163 
           L1004 150 L1028 140 L1054 129 L1117 102 Z"
        fill="none"
        stroke="black"
        stroke-width="8"
        stroke-linecap="round"
        stroke-linejoin="round"/>
</svg>
