<svg xmlns="http://www.w3.org/2000/svg" viewBox="0 0 2000 1600" width="1000" height="800">
  <path d="M262 44
    h17l10 2 16 8 11 11 18 27 19 29 9 14 13 21 15 27 14 29 14 34 12 36 9 33 7 35 5 35 2 23 
    2 44-4 80-7 122v13l2 17 5 22 7 19 10 19 9 12 7 6 8 3h15l10-5 13-11 7-7 10-13 7-11 8-16 
    12-31 10-26 18-47 9-21 7-12 9-11 8-8 14-10 16-7 21-6 341-80 56-13 46-11 56-13 36-8 
    36-6 26-3 34-2 55-2 12-2 14-7 9-7 9-12 11-16 14-20 16-23 8-12 12-17 14-20 12-17 14-18 
    5-7h2l2-4 9-11 14-15 5-6h2l2-4 12-12 8-7 9-8 14-9 15-7 19-5 9-1h23l17 3 17 6 15 8 
    13 10 9 8v2h2l11 15 9 17 5 16 3 20 14 171 13 156-1 13-4 13-7 12-9 10-8 6-15 6-10 2h-34 
    l-9 3-6 4-5 5-13 16-8 11-20 26-8 11-11 14-20 26-9 12-14 18-20 26-11 15-5 10-3 9-1 7v12 
    l3 11 5 12 14 29 14 28 11 23 13 26 11 23 13 26 8 18 4 17v21l-3 14-5 13-5 9-7 9-7 8-14 10 
    -13 6-47 17-36 13-49 18-26 9-41 15-26 9-30 11-16 8-10 7-10 9h-2l-2 4-10 11-8 13-7 17-8 30 
    -38 152-6 16-7 12-7 9-10 11-12 9-15 8-16 5-8 2h-37l-246-19-70-4-34-1-111-2-71-2-16-4-14-7 
    -9-7-6-5-10-13-8-16-4-17v-18l5-23 13-49 8-36 5-31 3-31 1-17v-54l-2-35-3-14-5-8-5-6-13-7 
    -4-1h-17l-13 4-10 6-9 8-8 13-4 10-1 13v16l1 22 1 13v9l1 7 2 55 1 16 1 17 1 30v29l-4 20 
    -6 17-10 18-9 12-4 5-8 7-10 7-16 8-16 5-20 3-47-4-16-3-16-6-13-7-9-7-9-8-7-8-9-13-7-15 
    -5-18-4-23-2-23v-1189l3-39 5-35 4-18 7-14 9-10 9-7 11-5z"
    stroke="black"
    stroke-width="12"
    stroke-linecap="round"
    stroke-linejoin="round"
    fill="none"/>
</svg>
