<svg xmlns="http://www.w3.org/2000/svg" viewBox="0 0 2048 1536" width="1024" height="768">
  <!-- Base wide gray track -->
  <path d="M463 419h6l12 17 19 28 11 16 19 28 16 23 14 21 15 22 12 17 14 19 9 11 12 14 11 12 21 21 8 7 17 16 8 8 8 7 8 8 8 7 9 9 8 7 8 8 8 7 8 8 8 7 8 8 8 7 17 16 15 14 49 46 30 28 13 12 17 16 13 12 10 9 10 6 8 3 13 1 28-6h18l12 4 8 5 5 4 7 8 7 7 12 7 12 3 18 2 20 1 611 5 9 2 8 6 6 8 2 6v17l-5 15-6 11-9 10-9 9-15 10-19 9-20 6-21 4-34 4-82 8-30 2-590 1h-62l-5-12-7-8-8-5-7-2h-14l-21 7-40 15-21 6-13 2-15 1-68 1-25-2-20-4-16-5-16-7-14-8-14-10-10-9-8-7-11-12-15-20-12-20-10-21-11-33-6-27-11-64-26-155-5-29-4-9-6-8-10-6-13-4-11-33-12-28-19-42-16-36-16-35-3-11 1-8 4-8 7-6 10-4z"
    stroke="#555"
    stroke-width="20"
    stroke-linecap="round"
    stroke-linejoin="round"
    fill="none"/>
</svg>
