<svg viewBox="0 0 1040 1120" xmlns="http://www.w3.org/2000/svg">
  <!-- Gray wide track -->
  <path d="M209 343h57l92 4 29 1 93 1h186l158 4 43 2 14 2 11 4 7 6 3 8v34l3 3 15 6 5 5 2 11v32l-3 19-6 21-12 31-13 31-11 25-7 15-13 28-16 34-12 26-8 17-8 16-16 34-7 15 1 4 19 11 8 7 2 9-5 10-11 12-19 19-11 9-11 7-2 1-9-1-10-5-4-4-2-7-1-9-1-144-1-15-5-4-25-14-12-9-7-6-8-11-8-13-5-6-9-4-13-2-64-4-14-2-9-7-8-11-13-24-4-5-19-9-33-13-27-9-20-3-42-2-127-4-17-1-11-2-6-4-4-8-8-36-9-39-4 2-7 8-6 4-9 2-16-3-37-3-12-3-6-7-1-4v-12l4-16 6-14 7-11 10-10 14-8 21-7 15-3z"
        fill="none" stroke="gray" stroke-width="20" stroke-linecap="round" stroke-linejoin="round"/>
</svg>
