<svg xmlns="http://www.w3.org/2000/svg" viewBox="0 0 2048 1105">
  <path d="M350 238 390 239l1405 55 7 1v8l-17 71v12l4 8 8 7 8 6-5 9-13 18-12 17-5 5-6 4-7 2h-71l-13 3-11 6-8 7-10 14-6 13-3 14v11l4 16 6 11 9 10 12 9 46 32 2 3-1 7-6 5-188 94-24 10-37 13-92 32-98 34-52 18-19 6-29 6-29 4-12 1-66 2h-43l-31-3-31-6-25-7-25-9-42-19-15-6-56-21-14-4-18-3h-58l-159 2-100 1h-34l-21-2-22-4-88-23-11-2-11-1h-15l-51 4h-20l-9-4-8-7-5-10-1-4v-34l3-12 6-10 8-8 12-9 17-13 16-8 16-6 14-3 7-1h25l18 4 12 5 11 7 13 11 15 14 8 7 12 10 14 8 14 6 14 3 9 1h11l14-2 16-5 16-8 23-14 26-16 16-8 17-4h19l17 4 16 8 27 15 24 14 27 15 49 28 23 13 49 28 43 24 24 10 23 7 24 5 16 2 16 1h15l25-2 23-4 22-6 22-8 28-12 14-9 10-9 10-11 8-14 5-12 4-16 1-9v-47l2-10 6-12 7-7 39-26 11-10 5-8 3-9 1-6v-9l-3-13-6-10-5-6-16-10-26-15-355-208-25-13-24-9-22-6-24-4-9-1h-45l-27 4-23 6-20 7-24 11-39 20-19 9-16 4-8 1h-15l-17-3-14-5-15-8-14-10-24-16-11-8-16-11-3-4 1-8z"
    stroke="#000"
    stroke-width="6"
    stroke-linecap="round"
    stroke-linejoin="round"
    fill="none"/>
</svg>
