<?xml version="1.0" encoding="UTF-8"?>
<svg xmlns="http://www.w3.org/2000/svg" viewBox="0 0 1440 1440" width="360" height="360">
  <path d="M1167 303 
           L1182 303 L1192 307 L1200 314 L1206 326 L1207 330 V340 
           L1203 355 L1195 371 L1189 384 L1182 403 L1175 430 L1170 447 
           L1169 454 V462 L1174 470 L1178 474 L1182 473 L1187 468 
           L1194 460 L1203 445 L1212 422 L1219 400 L1227 391 L1237 386 
           L1250 387 L1268 391 L1287 397 L1306 407 L1313 411 L1317 418 
           L1319 423 V431 L1314 446 L1305 460 L1295 473 L1281 490 
           L1268 507 L1257 521 L1248 532 L1237 545 L1224 562 L1206 589 
           L1194 608 L1184 623 L1175 634 L1166 643 L1153 652 L1127 667 
           L1109 677 L1093 686 L1065 699 L1044 707 L1029 711 L1004 714 
           L978 715 L976 716 H929 L914 715 L874 714 L838 708 L801 701 
           L783 698 L749 691 L719 682 L711 678 L700 675 L687 674 
           L681 679 L670 697 L659 709 L649 714 H628 L611 710 L600 705 
           L592 698 L584 685 L578 675 L573 671 L555 664 L499 647 
           L484 644 L463 639 L455 635 L418 623 L399 618 L368 609 
           H359 L351 616 L343 627 L334 642 L326 655 L316 673 L308 686 
           L301 700 L297 710 L296 715 V724 L305 744 L311 757 V772 
           L305 790 L297 806 L290 832 L279 861 L272 875 L263 884 
           L256 887 L232 888 L229 895 L226 909 L225 911 V920 
           L232 951 L238 967 L249 995 L257 1017 L267 1033 L280 1050 
           L287 1060 L291 1066 V1068 L295 1070 L304 1076 L311 1083 
           L316 1092 V1116 L312 1124 L307 1130 L293 1137 H274 L258 1134 
           L226 1125 L210 1122 L177 1113 L165 1110 L148 1102 L138 1093 
           L131 1082 L128 1073 V1061 L129 1058 L130 1046 L136 1029 
           L138 1023 L137 1014 L129 992 L124 967 V901 L126 892 L127 874 
           L133 842 L141 814 L153 785 L167 749 L178 725 L192 696 
           L207 663 L220 636 L228 619 L237 605 L248 588 L258 569 
           L270 543 L283 522 L292 506 L298 498 L300 496 L310 495 
           L324 497 L350 504 L381 514 L405 520 L427 527 L450 532 
           L506 546 L570 561 L588 564 L607 569 L635 574 L654 578 
           L675 581 L714 587 L743 590 H766 L777 592 L803 596 L827 602 
           L842 608 L869 619 L888 624 L898 623 L913 618 L930 609 
           L941 600 L950 586 L952 580 V552 L950 540 V533 L948 527 
           L946 513 L942 499 L940 486 L939 482 V454 L942 443 
           L950 431 L958 423 L975 410 L997 396 L1012 387 L1038 371 
           L1064 356 L1079 347 L1106 332 L1129 319 L1145 311 L1160 305 Z"
        fill="none"
        stroke="black"
        stroke-width="8"
        stroke-linecap="round"
        stroke-linejoin="round"/>
</svg>
