<svg xmlns="http://www.w3.org/2000/svg" viewBox="0 0 2048 1024">
  <path d="M1939 166h7l8 4 7 8 2 4v8l-16 34-16 33-13 28-15 27-13 21-12 17-13 16-9 11-29 29-11 9-16 13-17 12-18 11-23 12-29 14-45 22-25 9-24 6-21 3-21 1-19-2-18-4-64-19-47-14-15-3h-20l-14 3-16 6-35 15-13 7-12 11-7 10-13 26-6 7-10 6-5 2h-20l-21-2-25 1-23 2-30 5-25 6-26 8-22 9-16 8-16 9-14 10-10 8-20 18-11 12-17 14-15 10-22 12-20 8-20 6-25 4-26 3-23 5-27 9-22 10-17 10-17 12-13 9-15 11-21 13-27 13-25 9-25 6-26 3h-10l-12-3-16-8-12-11-6-8-10-17-4-5-11-7-9-3-7-1h-9l-22 4h-21l-21-3-21-5-20-7-14-3-17-2h-25l-25 3-25 6-20 7-16 8-16 9-14 10-15 14-4 5-8 7-13 10-15 8-16 5h-22l-11-4-8-6-8-9-3-6-1-14 3-9 6-9 7-6 10-5 108-25 130-30 27-6 16-2h39l28 5 19 2 64 1 9 4 9 7 7 10 9 15 9 10 8 6 12 6 11 3 16 1 19-2 43-8 15-3 11-6 7-8 6-12 7-15 6-9 8-8 14-9 18-8 15-4h18l15 4 17 8 12 3 7 1h26l15-3 13-5 12-7 11-9 8-10 8-15 5-17 3-12 5-6 16-5 36-11 57-21 50-19 25-9 13-3 19-1 40 4 18 1h16l11-2 7-4 4-6 2-6v-9l-5-12-6-9-1-1v-5l13-8 50-28 21-12 25-14 23-13 25-14 23-13 25-14 21-12 27-15 24-14 24-13 21-12 25-14 28-15 28-14 30-13 36-15 45-19 133-56z"
    fill="none" stroke="white" stroke-width="4" stroke-linecap="round" stroke-linejoin="round"/>
</svg>
