<svg xmlns="http://www.w3.org/2000/svg" viewBox="0 0 2048 1536" width="1024" height="768">
  <!-- Track outline only -->
  <path d="M1558 248h14l13 4 14 8 18 18 4 5h24l18 4 16 8 12 11 8 10 10 19 9 27 6 26 23 132 21 127 14 86 8 38 10 46 4 26 1 21-2 13-5 12-9 17-12 17-11 14-12 13-14 14-18 13-11 5-20 4-9 1h-54l-44-3-23-1h-92l-31-3-21-5-16-7-11-8-9-9-7-11-5-12-5-20-63-10-35-4-17-1-7 8-5 12-5 24-4 11-6 11-9 10-12 6-19 5-20 3-23 2h-73l-32-3-22-4-17-5-11-6-9-9-7-11-6-18-6-27-3-9-33-3-22-4-25-7-24-9-17-8-23-13-22-14-28-19-26-17-19-11-23-12-15-6h-2l-10 15-7 11-14 29-12 34-6 21-9 39-9 53-7 53-8 70-4 43-3 40-3 24-5 21-5 13-5 10-11 12-5 4-12 6-12 3h-16l-13-4-9-4-14-9-15-13-36-36-18-13-17-11-18-12-13-10-12-11-7-8-6-12-2-8-1-43-4-10-4-6-9-10-12-10-18-13-13-11-9-9-9-13-5-11-5-21-1-11v-21l3-19 7-24 10-23 12-23 14-24 12-20 15-26 16-28 15-26 14-25 14-24 14-25 14-24 16-30 11-17 10-13 8-8 15-10 14-4h13l16 3 22 10 17 13 11 9 30 30 8 7 11 10 16 11 16 8 7-4 11-10 7-10 8-14 12-25 14-34 12-25 12-18 6-7 11-9 10-6 12-4 5-1h18l17 4 21 8 19 9 23 13 19 11 15 9 22 13 30 16 24 14 44 26 22 12 26 13 25 10 28 8 21 4 29 3 33 2 54 1 44-1 111-5 31-1h75l47 2 2-5 6-16 2-11v-22l-4-20-5-17-11-27-14-29-12-25-11-23-11-27-7-24-3-21v-21l2-19 5-22 7-19 9-16 8-10 9-9 9-6 8-4z"
    stroke="#333"
    stroke-width="18"
    stroke-linecap="round"
    stroke-linejoin="round"
    fill="none"/>
</svg>
