<?xml version="1.0" encoding="UTF-8"?>
<svg xmlns="http://www.w3.org/2000/svg" viewBox="0 0 2048 2048" width="600" height="600">
  <path 
    d="M1686 387h15l11 2 15 5 14 7 13 9 12 11 9 9 10 13 10 15 9 15 12 22 13 28 19 45 19 46 8 15 7 9 4 4 3 1h14l21-4h12l12 5 8 7 8 13 8 17 9 24 8 29 4 20v48l-2 14-5 18-8 19-10 17-11 14-14 14-19 14-21 12-32 15-33 15-30 14-102 47-189 87-33 15-32 15-33 15-117 54-33 15-32 15-33 15-41 19-76 35-33 15-32 15-33 15-41 19-39 18-33 15-32 15-33 15-117 54-33 15-32 15-33 15-32 15-21 8-7 2h-31l-11-3-12-6-9-7-7-7-18-24-11-14-12-14-10-10-13-9-10-5-5-1h-29l-11 2-30 13-21 7-12 3-16 2-27 1-21-1-22-4-20-7-21-10-13-8-16-12-13-12-9-9-11-14-10-14-10-18-8-17-7-19-5-16-5-24-2-19v-25l2-20 6-26 8-24 10-21 10-16 9-12 12-14 15-15 11-9 15-11 15-9 23-12 36-17 28-13 31-15 28-13 29-14 28-13 39-19 23-11 34-16 22-8 9-2h19l12 3 16 8 12 11 7 8 8 14 7 16 5 19 2 12 1 12v25l-2 19-6 25-6 17-8 17-9 15-11 14-8 9-10 8-17 11-35 18-39 20-19 10-42 22-28 15-9 6-7 8-2 5v13l3 7 5 5 6 4 18 4 83 11 49 7 50 6 37 4 13 1h34l29-3 29-6 33-11 29-14 28-13 36-18 9-7 5-6 3-7v-7l-7-21-14-34-4-13-2-12v-61l1-23 3-29 3-44 3-28 2-42 3-22 2-44 4-34 5-19 8-16 7-11 11-11 14-10 14-7 16-5 11-2h35l39 3 29 3 25 1 37 4 45 3 33 3 29 2 29 3 23 1 40 4 43 3 32 3 34 2 13 2 39 2 41 4 39 3 19 2 38 2 31 4h22l7-3 8-9v-8l-5-10-11-16-13-18-14-20-13-18-12-17-10-14-10-13-10-10-14-9-15-6-16-3-26-1-17-4-16-6-16-9-11-9-10-10-9-13-8-15-5-16-3-19v-15l3-19 7-21 9-16 9-11 9-9 14-10 16-8 21-7 31-6 52-10 93-17 35-7z"
    stroke="#000"
    stroke-width="6"
    stroke-linecap="round"
    stroke-linejoin="round"
    fill="none"/>
</svg>
