<?xml version="1.0" encoding="UTF-8"?>
<svg version="1.1" viewBox="0 0 2048 1536" width="1024" height="768" xmlns="http://www.w3.org/2000/svg">
<path transform="translate(0)" d="m0 0h2048v1536h-2048z" fill="#FFFFFE"/>
<path transform="translate(1397,367)" d="m0 0h64l36 4 24 5 15 6 11 6 12 8 16 13 7 7 8 7 16 17 9 11 12 14 10 13 16 21 14 19 12 17 14 21 13 21 12 22 11 23 7 18 7 25 3 18 1 16v20l-2 30-4 24-4 15-5 12-5 9-4 5-9 4-12 3h-21l-17-3-25-7-37-14-19-7-39-12-40-12-25-9-18-8-11-8-11-12-12-17-11-19-8-16-5-16v-11l4-18 5-15 9-20 11-21 13-22 15-24 14-22 9-17 6-17 4-17 1-16-2-15-5-12-7-9-8-6-11-5-14-3h-18l-15 4-16 8-16 10-16 12-16 9-23 12-19 11-14 10-10 9-8 10-9 15-8 15-12 26-8 16-9 16-8 10-8 8-10 6-11 4-3 1h-18l-18-4-4-1-1-4v-21l4-22 8-34 3-18v-26l-4-15-6-10-9-10-5-4h-30l-30 3-36 6-32 8-29 10-21 9-23 12-14 9-16 12-13 12-8 8-8 10-9 14-8 16-6 15-5 21-2 19v15l4 24 9 26 12 21 10 13 9 10 9 9 14 11 12 8 14 9 23 13 40 20 34 15 48 20 50 20 40 14 72 22 36 12 21 8 20 9 21 11 12 8 14 11 17 17 12 17 8 16 7 19 5 22 3 27 1 14 1 36-1 30-3 24-5 18-5 9-10 6-19 5-24 3-16 1h-80l-27-1h-557l-76 3h-48l-30-2-27-4-16-5-19-9-13-10-9-7-9-9-7-8-8-11-12-20-9-21-6-18-6-25-3-23-1-11v-25l3-20 9-35 4-18v-23l-4-12-6-11-11-12-10-8-15-10-25-15-18-13-5-4 2-5 7-7 9-11 8-8 4-5 8-7 12-11 8-7 10-9 17-12 19-14 14-9 23-14 20-12 32-17 19-10 84-42 23-11 36-18 22-12 24-13 24-14 28-16 26-15 23-13 27-15 26-14 28-15 23-13 29-16 28-15 22-11 25-11 28-10 19-5 32-5 34-3 30-1 104-1 26-1 80-7z" fill="#FFFFFE"/>
<path transform="translate(1397,313)" d="m0 0h45l33 2 26 3 29 6 20 6 16 8 14 8 19 14 11 10 8 7 21 21 9 11 10 11 11 14 14 18 13 18 14 19 14 20 14 21 13 21 14 25 13 27 10 27 7 25 4 25 1 35-2 34-5 30-7 25-9 21-11 18-9 10-14 12-18 8-10 2h-34l-24-4-29-8-72-24-53-17-38-14-24-11-16-9-12-9-10-10-11-14-10-14-11-19-11-23-8-24-2-10v-20l3-19 10-30 11-22 13-21 8-12 17-26 9-15 8-15 8-19 5-19-15 2-14 6-27 16-23 12-20 12-13 10-10 11-10 15-9 16-15 33-8 18-8 14-10 14-9 9-15 9-18 7-16 4-13 2h-26l-23-5-20-9-17-16-8-14-4-17v-14l3-19 6-20 10-30 3-17v-9l-33 4-36 7-28 8-22 8-20 9-19 11-13 10-10 9-7 7-7 10-7 12-5 14-3 15v18l3 19 3 10 9 15 9 10 12 12 11 9 18 13 17 10 21 12 30 15 36 16 28 12 38 16 36 13 44 14 55 16 38 12 30 11 34 16 16 10 20 14 11 11 2 1v2h2l7 8 10 15 8 16 8 20 5 15 7 28 5 28 3 25 2 33-1 27-3 29-4 20-4 15-8 19-8 14-12 13-8 7-12 6-15 4-20 3-32 2h-49l-23-1-95-2h-446l-71 1h-71l-57-3-38-5-18-4-26-7-26-12-11-6-18-13-15-15-9-12-9-14-13-24-11-27-6-20-6-25-4-30-1-11v-38l5-36 7-27 4-11-1-4-7-8-15-11-18-10-17-9-14-9-12-10-10-16-4-12-1-6v-13l4-16 12-23 9-10 9-11 7-7 11-9 9-8 14-10 16-11 22-14 24-14 72-40 87-48 24-13 23-13 32-17 23-13 23-12 22-12 26-14 28-15 34-18 22-12 19-10 77-44 56-30 32-15 24-9 26-7 41-7 41-4 57-3 66-2 42-2 42-4 49-4zm0 54-53 4-57 5-26 1-104 1-30 1-34 3-32 5-22 6-25 9-20 9-25 12-23 12-23 13-26 14-23 13-25 13-23 13-26 14-17 10-49 28-26 15-29 16-22 12-54 27-23 11-82 41-42 23-21 13-23 14-16 12-18 13-9 7-12 11-20 18-6 5-7 8-10 11-7 8-3 4 1 3 19 14 16 10 20 12 11 8 10 9 7 8 8 16 2 7v23l-5 22-8 31-3 20v25l3 27 5 25 6 20 10 24 8 14 9 14 10 11 7 8 10 9 14 10 16 8 12 5 19 4 27 3 19 1h48l76-3h557l27 1h80l26-2 19-3 16-5 9-6 5-11 5-21 2-18 1-38-1-28-3-34-4-22-8-24-8-16-7-11-9-11-16-16-16-12-21-12-23-11-26-10-36-12-65-20-36-12-29-11-44-18-38-16-36-16-42-21-17-10-14-9-16-11-14-12-12-12-10-13-14-24-9-26-4-24v-15l2-19 6-24 9-21 10-17 14-17 13-13 10-8 17-12 19-11 23-11 24-9 19-6 28-7 36-6 30-3h30l10 9 8 11 4 10 2 9v26l-4 22-9 39-2 13v21l1 4 16 4 6 1h18l12-4 9-5 10-9 7-8 9-15 8-16 13-27 8-16 8-14 9-12 8-8 14-10 15-9 27-14 19-11 19-14 13-8 16-8 15-4h18l14 3 14 7 8 7 6 10 4 13 1 15-2 17-5 18-8 18-8 14-14 22-15 24-14 24-8 16-10 23-5 17-2 11v11l6 18 8 16 10 17 10 14 12 14 9 7 16 8 27 10 39 12 40 12 20 7 31 12 21 7 21 5 8 1h21l12-3 9-4 6-8 6-12 5-16 4-22 2-17 1-24v-16l-2-23-4-19-7-22-10-24-11-22-16-27-18-27-12-17-14-19-14-18-13-17-24-28-15-16-13-12-11-9-13-9-14-8-15-6-24-5-36-4z" fill="#010101"/>
</svg>
