<svg xmlns="http://www.w3.org/2000/svg" viewBox="0 0 860 830" width="860" height="830">
  <!-- Track outline -->
  <path d="M809 40l10 1 6 5 2 5v12l-5 23-10 34-19 60-20 61-5 13-15 12-17 12-18 13-24 16-14 9-7 1-13-4-15-9-8-1-5 3-6 9-10 26-8 16-9 14-6 7-4 2h-30l-17-1h-21l-10 4-9 7-7 9-5 10-2 8v19l4 13 1 6v8l-3 13-6 10-9 10-8 8-4 8-1 15v11l-2 13-5 12-7 12-11 16-26 36-11 17-7 14-2 7v11l4 11 9 14 11 13 9 11 9 10 9 11 11 14 4 8 1 6-3 9-6 5-7 2h-10l-19-3-64-16-53-15-33-11-106-30-61-18-35-11-19-8-4-5-2-5 1-9 5-9 9-11 16-16 7-8 52-52 11-9 9-6 3-1h10l16 7 23 13 29 17 26 17 13 4 8 1h9l16-3 10-5 10-9 11-12 7-11 3-9v-13l-4-15-4-8-12-9-13-10-14-11-16-13-11-9-9-9-4-8 1-8 7-8 8-4 8-2h18l16 4 16 8 8 6 13 14 5 1 23-7 3-2-12-9-24-16-22-14-27-16-6-7v-8l7-8 10-7 21-12 28-15 44-24 47-26 28-16 25-15 24-15 25-16 32-21 24-16 19-13 17-12 19-14 12-9 18-14 14-11 11-9 16-13 11-9 17-14 16-13 19-14 13-7z"
    stroke="#333"
    stroke-width="18"
    stroke-linecap="round"
    stroke-linejoin="round"
    fill="none"/>
</svg>
